<svg class="home_blob" viewBox="0 0 200 200" xmlns="http://www.w3.org/2000/svg">
                            <mask id="mask0" mask-type="alpha">
                                <path
                                    d="M50.8,-53.3C63.5,-38.1,69.9,-19.1,69.4,-0.5C68.9,18.1,61.6,36.2,48.9,48.2C36.2,60.2,18.1,66,0.4,65.7C-17.4,65.3,-34.7,58.7,-48.1,46.7C-61.4,34.7,-70.7,17.4,-71.5,-0.8C-72.3,-18.9,-64.5,-37.9,-51.2,-53C-37.9,-68.2,-18.9,-79.6,0.1,-79.7C19.1,-79.7,38.1,-68.4,50.8,-53.3Z"
                                    transform="translate(100 100)" />
                            </mask>
                            <g mask="url(#mask0)">
                                <path
                                    d="M50.8,-53.3C63.5,-38.1,69.9,-19.1,69.4,-0.5C68.9,18.1,61.6,36.2,48.9,48.2C36.2,60.2,18.1,66,0.4,65.7C-17.4,65.3,-34.7,58.7,-48.1,46.7C-61.4,34.7,-70.7,17.4,-71.5,-0.8C-72.3,-18.9,-64.5,-37.9,-51.2,-53C-37.9,-68.2,-18.9,-79.6,0.1,-79.7C19.1,-79.7,38.1,-68.4,50.8,-53.3Z"
                                    transform="translate(100 100)" />

                                <image class="home__blob-img"
                                    xlink:href="D:\Users\Luky\Desktop\WebPage CV\profile-pic1.png" />
                            </g>
                        </svg>